<svg xmlns='http://www.w3.org/2000/svg' font-family="Inter" font-size="0.45" font-weight="700" viewBox="0 0 800 438.5542" width="800"><defs><clipPath id="board-clip"><rect height="7" width="13" x="1.5" y="1.5"/></clipPath><marker id="linehead" markerHeight="4" markerWidth="4" refX="2" refY="2"><circle cx="2" cy="2" r="2"/></marker><marker id="arrowhead" markerHeight="5" markerWidth="7" orient="auto" refX="7" refY="2.5"><polygon points="0 0, 7 2.5, 0 5"/></marker></defs><rect fill="white" height="100%" width="100%" x="0" y="0"/><g id="diagram" transform="scale(60.241, 60.241)"><g id="board-view" transform="translate(-1.36, -1.36)"><g clip-path="url(#board-clip)" id="goban"><g id="lines" stroke="black" stroke-linecap="square" stroke-width="0.03"><line x1="0" x2="0" y1="0" y2="18"/><line x1="1" x2="1" y1="0" y2="18"/><line x1="2" x2="2" y1="0" y2="18"/><line x1="3" x2="3" y1="0" y2="18"/><line x1="4" x2="4" y1="0" y2="18"/><line x1="5" x2="5" y1="0" y2="18"/><line x1="6" x2="6" y1="0" y2="18"/><line x1="7" x2="7" y1="0" y2="18"/><line x1="8" x2="8" y1="0" y2="18"/><line x1="9" x2="9" y1="0" y2="18"/><line x1="10" x2="10" y1="0" y2="18"/><line x1="11" x2="11" y1="0" y2="18"/><line x1="12" x2="12" y1="0" y2="18"/><line x1="13" x2="13" y1="0" y2="18"/><line x1="14" x2="14" y1="0" y2="18"/><line x1="15" x2="15" y1="0" y2="18"/><line x1="16" x2="16" y1="0" y2="18"/><line x1="17" x2="17" y1="0" y2="18"/><line x1="18" x2="18" y1="0" y2="18"/><line x1="0" x2="18" y1="0" y2="0"/><line x1="0" x2="18" y1="1" y2="1"/><line x1="0" x2="18" y1="2" y2="2"/><line x1="0" x2="18" y1="3" y2="3"/><line x1="0" x2="18" y1="4" y2="4"/><line x1="0" x2="18" y1="5" y2="5"/><line x1="0" x2="18" y1="6" y2="6"/><line x1="0" x2="18" y1="7" y2="7"/><line x1="0" x2="18" y1="8" y2="8"/><line x1="0" x2="18" y1="9" y2="9"/><line x1="0" x2="18" y1="10" y2="10"/><line x1="0" x2="18" y1="11" y2="11"/><line x1="0" x2="18" y1="12" y2="12"/><line x1="0" x2="18" y1="13" y2="13"/><line x1="0" x2="18" y1="14" y2="14"/><line x1="0" x2="18" y1="15" y2="15"/><line x1="0" x2="18" y1="16" y2="16"/><line x1="0" x2="18" y1="17" y2="17"/><line x1="0" x2="18" y1="18" y2="18"/><g fill="black" id="hoshi" stroke="none"><circle cx="3" cy="3" r="0"/><circle cx="3" cy="9" r="0"/><circle cx="3" cy="15" r="0"/><circle cx="9" cy="3" r="0"/><circle cx="9" cy="9" r="0"/><circle cx="9" cy="15" r="0"/><circle cx="15" cy="3" r="0"/><circle cx="15" cy="9" r="0"/><circle cx="15" cy="15" r="0"/></g></g><g id="stones" stroke="none"><circle cx="3" cy="3" fill="white" r="0.48" stroke="black" stroke-width="0.03"/><circle cx="4" cy="3" fill="white" r="0.48" stroke="black" stroke-width="0.03"/><circle cx="5" cy="3" fill="white" r="0.48" stroke="black" stroke-width="0.03"/><circle cx="6" cy="3" fill="white" r="0.48" stroke="black" stroke-width="0.03"/><circle cx="7" cy="3" fill="white" r="0.48" stroke="black" stroke-width="0.03"/><circle cx="8" cy="3" fill="white" r="0.48" stroke="black" stroke-width="0.03"/><circle cx="9" cy="3" fill="white" r="0.48" stroke="black" stroke-width="0.03"/><circle cx="10" cy="3" fill="white" r="0.48" stroke="black" stroke-width="0.03"/><circle cx="11" cy="3" fill="white" r="0.48" stroke="black" stroke-width="0.03"/><circle cx="12" cy="3" fill="white" r="0.48" stroke="black" stroke-width="0.03"/><circle cx="13" cy="3" fill="white" r="0.48" stroke="black" stroke-width="0.03"/><circle cx="3" cy="4" fill="white" r="0.48" stroke="black" stroke-width="0.03"/><circle cx="4" cy="4" fill="white" r="0.48" stroke="black" stroke-width="0.03"/><circle cx="6" cy="4" fill="white" r="0.48" stroke="black" stroke-width="0.03"/><circle cx="9" cy="4" fill="white" r="0.48" stroke="black" stroke-width="0.03"/><circle cx="10" cy="4" fill="white" r="0.48" stroke="black" stroke-width="0.03"/><circle cx="11" cy="4" fill="white" r="0.48" stroke="black" stroke-width="0.03"/><circle cx="13" cy="4" fill="white" r="0.48" stroke="black" stroke-width="0.03"/><circle cx="3" cy="5" fill="white" r="0.48" stroke="black" stroke-width="0.03"/><circle cx="4" cy="5" fill="white" r="0.48" stroke="black" stroke-width="0.03"/><circle cx="12" cy="5" fill="white" r="0.48" stroke="black" stroke-width="0.03"/><circle cx="13" cy="5" fill="white" r="0.48" stroke="black" stroke-width="0.03"/><circle cx="3" cy="6" fill="white" r="0.48" stroke="black" stroke-width="0.03"/><circle cx="5" cy="6" fill="white" r="0.48" stroke="black" stroke-width="0.03"/><circle cx="6" cy="6" fill="white" r="0.48" stroke="black" stroke-width="0.03"/><circle cx="7" cy="6" fill="white" r="0.48" stroke="black" stroke-width="0.03"/><circle cx="8" cy="6" fill="white" r="0.48" stroke="black" stroke-width="0.03"/><circle cx="10" cy="6" fill="white" r="0.48" stroke="black" stroke-width="0.03"/><circle cx="12" cy="6" fill="white" r="0.48" stroke="black" stroke-width="0.03"/><circle cx="13" cy="6" fill="white" r="0.48" stroke="black" stroke-width="0.03"/><circle cx="3" cy="7" fill="white" r="0.48" stroke="black" stroke-width="0.03"/><circle cx="4" cy="7" fill="white" r="0.48" stroke="black" stroke-width="0.03"/><circle cx="5" cy="7" fill="white" r="0.48" stroke="black" stroke-width="0.03"/><circle cx="6" cy="7" fill="white" r="0.48" stroke="black" stroke-width="0.03"/><circle cx="7" cy="7" fill="white" r="0.48" stroke="black" stroke-width="0.03"/><circle cx="8" cy="7" fill="white" r="0.48" stroke="black" stroke-width="0.03"/><circle cx="9" cy="7" fill="white" r="0.48" stroke="black" stroke-width="0.03"/><circle cx="10" cy="7" fill="white" r="0.48" stroke="black" stroke-width="0.03"/><circle cx="11" cy="7" fill="white" r="0.48" stroke="black" stroke-width="0.03"/><circle cx="12" cy="7" fill="white" r="0.48" stroke="black" stroke-width="0.03"/><circle cx="13" cy="7" fill="white" r="0.48" stroke="black" stroke-width="0.03"/></g><g id="move-numbers" text-anchor="middle"><g><text dy="0.35em" fill="black" x="4" y="4">1</text></g><g><text dy="0.35em" fill="black" x="4" y="5">2</text></g><g><text dy="0.35em" fill="black" x="5" y="6">3</text></g><g><text dy="0.35em" fill="black" x="8" y="6">4</text></g><g><text dy="0.35em" fill="black" x="10" y="4">5</text></g><g><text dy="0.35em" fill="black" x="11" y="4">6</text></g><g><text dy="0.35em" fill="black" x="12" y="5">7</text></g><g><text dy="0.35em" fill="black" x="12" y="6">8</text></g></g><g id="markup-marks"/><g id="markup-triangles"/><g id="markup-circles"/><g id="markup-squares"/><g id="markup-selected"/><g id="markup-dimmed"/><g id="markup-labels"/><g id="markup-lines" marker-end="url(#linehead)" marker-start="url(#linehead)" stroke="black" stroke-width="0.03"/><g id="markup-arrows" marker-end="url(#arrowhead)" stroke="black" stroke-width="0.03"/></g></g></g></svg>